<?xml version="1.0" encoding="utf-8"?>
<!-- Generator: Adobe Illustrator 24.0.3, SVG Export Plug-In . SVG Version: 6.00 Build 0)  -->
<svg version="1.1" id="Camada_1" xmlns="http://www.w3.org/2000/svg" xmlns:xlink="http://www.w3.org/1999/xlink" x="0px" y="0px"
	 viewBox="0 0 50 50" style="enable-background:new 0 0 50 50;" xml:space="preserve">
<style type="text/css">
	.st0{fill-rule:evenodd;clip-rule:evenodd;fill:#245BFF;}
</style>
<title>Group</title>
<desc>Created with Sketch.</desc>
<g id="Home">
	<g id="Group-6" transform="translate(-75.000000, -15.000000)">
		<g transform="translate(75.000000, 15.000000)">
			<g id="Group">
				<path id="Fill-22" class="st0" d="M24.3,29.5c-0.7-0.5-3.8-2.3-3.8-2.3s-3.1-1.9-3.8-2.3c-0.1,0-0.2,0-0.2,0.1
					c0,0.2,0,0.4,0,0.6c0,0.1,0,0.1,0,0.2c0.2,0.3,0.6,1,0.9,1.4c0.1,0.1,0.1,0.3,0.1,0.5l-0.6,2.4c0,0.1,0,0.2,0.1,0.3
					c0.3,0.3,0.7,0.5,1.2,0.8c0.5,0.3,0.9,0.5,1.3,0.7c0.1,0,0.2,0,0.3,0l1.8-1.7c0.1-0.1,0.3-0.2,0.5-0.2c0.4,0,1.3,0.1,1.6,0.1
					c0.1,0,0.1,0,0.2,0c0.1-0.1,0.3-0.2,0.5-0.3C24.3,29.7,24.3,29.6,24.3,29.5"/>
				<path id="Fill-24" class="st0" d="M19.1,32.5c0-0.2-0.2-0.4-0.3-0.4c-0.5-0.2-0.9-0.5-1-0.5c-0.1-0.1-0.5-0.3-0.9-0.6
					c-0.2-0.1-0.4-0.1-0.5-0.1l-0.1,0c-0.7,0.2-1.3,0.8-1.5,1.6c-0.5,1.8-1.4,5.3-1.9,6.8c-0.1,0.2,0.2,0.4,0.4,0.2
					c1.2-1.1,3.8-3.5,5.2-4.8c0.6-0.5,0.8-1.3,0.7-2.1L19.1,32.5z"/>
				<path id="Fill-26" class="st0" d="M37,11.7c0.2-0.3,0.1-0.5,0-0.6c0,0,0,0,0,0c-0.1-0.1-0.2-0.1-0.4-0.2l-3.2-0.5
					c-0.3,0-0.6,0.1-0.8,0.3l-1.8,2.4c-0.3,0.4-0.2,0.9,0.1,1.1c0,0,0,0.1,0,0.1c0,0,0,0-0.1,0l-0.9-0.1l-1.2-0.2
					c-0.3-0.1-0.7,0.1-0.9,0.4l-5.1,7c-0.1,0.1-0.2,0.1-0.3,0.1l-4.9-3c-0.3-0.2-0.8-0.1-0.9,0.2c-0.2,0.3-0.1,0.8,0.3,0.9l0.1,0.1
					c0.1,0,0.1,0.1,0.1,0.2L17,21c0,0.1-0.1,0.1-0.2,0.1c0,0-0.7-0.4-0.7-0.4c-0.6-0.4-1.3-0.2-1.7,0.4c-0.3,0.5-0.2,1.2,0.2,1.6
					c0,0,0.1,0.1,0.2,0.1c0,0,0,0,0,0c0,0,0,0,0,0l3.7,2.3c2,1.2,3.5,0.2,4-0.1c0.4-0.3,0.9-0.7,1.7-0.2c0.3,0.2,0.6,0.2,0.9,0
					l0.9-0.6c0.3-0.2,0.6-0.2,0.9,0l2.8,1.7c0.1,0.1,0.3,0,0.3-0.1l6.8-9.4c0.6-0.8,0.1-1.1-0.2-1.2c0,0,0,0-0.1,0L35,15
					c0,0,0,0-0.1,0c-0.1-0.1-0.1-0.2-0.1-0.3C35.4,14,37,11.7,37,11.7"/>
			</g>
		</g>
	</g>
</g>
</svg>
